<?xml version="1.0" encoding="UTF-8"?>
<svg version="1.1" xmlns="http://www.w3.org/2000/svg" width="500" height="500">
<path d="M0 0 C1.99492958 -0.02444238 3.98938272 -0.08100758 5.98364258 -0.13818359 C23.23047272 -0.29286368 36.92126824 7.367973 49.30981445 18.97119141 C61.44451434 31.60372513 65.96286788 46.34152831 65.79942322 63.5078125 C65.7974544 64.58735891 65.79548557 65.66690533 65.79345709 66.77916527 C65.78474994 70.37321947 65.76188302 73.96704379 65.73925781 77.56103516 C65.73054241 80.14723392 65.72286871 82.73343637 65.71615601 85.31964111 C65.70292345 90.15929263 65.68603333 94.99890786 65.66481978 99.83853102 C65.62329016 109.34809269 65.60789121 118.85754317 65.60194397 128.3671875 C65.60088025 129.86742211 65.59980491 131.36765672 65.59871811 132.86789131 C65.59710348 135.1408779 65.59551554 137.41386449 65.5939977 139.68685114 C65.58823862 148.24061893 65.58018019 156.79438224 65.56884766 165.34814453 C65.56730895 166.5200108 65.56730895 166.5200108 65.56573916 167.71555114 C65.54805971 180.38270348 65.49737119 193.04954436 65.43636637 205.7165525 C65.37459115 218.7415252 65.35486079 231.76610752 65.37230498 244.7912159 C65.38160024 252.81530086 65.35739437 260.8378532 65.28969199 268.8616643 C65.24115449 275.01217594 65.25042139 281.16137486 65.28097153 287.31197357 C65.28436712 289.82986922 65.26897981 292.34787222 65.23325157 294.86551666 C64.39748967 308.10560369 64.39748967 308.10560369 68.99960518 319.98065186 C71.74349552 322.4936182 74.44319453 324.39437135 77.5949707 326.35009766 C95.54167765 344.13926216 105.69060886 369.4218937 105.92431641 394.5324707 C105.91875732 395.5654126 105.91319824 396.59835449 105.9074707 397.66259766 C105.90009888 399.29998901 105.90009888 399.29998901 105.89257812 400.97045898 C105.5315477 425.94821012 96.15545636 447.98212536 79.5949707 466.35009766 C78.74901401 467.38238842 77.9065245 468.41753083 77.06762695 469.45556641 C67.82596061 480.27400994 54.43759979 488.42865984 41.5324707 494.22509766 C40.93281494 494.49918457 40.33315918 494.77327148 39.71533203 495.05566406 C28.31773553 499.9202893 16.85044367 500.86196339 4.63012695 500.79614258 C2.22951329 500.78763149 -0.16871111 500.81650895 -2.5690918 500.84814453 C-29.66451326 500.97040985 -52.87258625 488.87541395 -71.9675293 470.10009766 C-91.3053024 450.5487717 -101.86496571 425.71771624 -101.7175293 398.10009766 C-101.71261475 397.0039917 -101.7077002 395.90788574 -101.70263672 394.77856445 C-101.38566216 372.75777318 -93.76719412 348.70735843 -78.4050293 332.35009766 C-77.13851785 331.31959899 -75.86148081 330.3019712 -74.57714653 329.2937727 C-67.10699126 323.16244803 -61.68571135 317.75284418 -60.63517022 307.8284384 C-60.38155879 302.22555743 -60.47130661 296.66097385 -60.62036133 291.05639648 C-60.6281623 288.5333015 -60.62884962 286.01017611 -60.62301636 283.48707581 C-60.62613554 278.08147019 -60.67767547 272.67989195 -60.77447891 267.27521706 C-60.91438984 259.44803864 -60.96210504 251.62232714 -60.98817752 243.79403921 C-61.03281343 231.07104521 -61.14724852 218.34970789 -61.30786133 205.62768555 C-61.46315943 193.31238713 -61.59066432 180.99738238 -61.67700195 168.68139648 C-61.68233634 167.92230544 -61.68767072 167.1632144 -61.69316675 166.3811206 C-61.74577329 158.82229435 -61.7942326 151.26344178 -61.84259329 143.7045874 C-61.86618571 140.02877955 -61.89019686 136.35297449 -61.91427612 132.6771698 C-61.91891829 131.95883511 -61.92356045 131.24050041 -61.92834328 130.500398 C-61.99294709 120.59630244 -62.08525567 110.69283376 -62.19848326 100.78918119 C-62.24978136 96.18596065 -62.29362802 91.58266223 -62.33855057 86.97937584 C-62.3645571 84.53530431 -62.39428683 82.09126897 -62.42810822 79.64729309 C-62.72211862 58.31628928 -62.08439049 40.86562754 -48.4050293 23.35009766 C-47.89456055 22.66302734 -47.3840918 21.97595703 -46.8581543 21.26806641 C-35.23809072 6.68546186 -18.11130913 0.16164961 0 0 Z M-22.42456055 41.05712891 C-27.24166479 46.6343285 -30.52028599 53.64482218 -30.5436945 61.0452528 C-30.54916894 62.01612652 -30.55464338 62.98700024 -30.56028372 63.98729438 C-30.56126183 65.05634853 -30.56223993 66.12540268 -30.56324768 67.22685242 C-30.56818566 68.3605597 -30.57312364 69.49426697 -30.57821125 70.66232902 C-30.59363319 74.48102055 -30.60195958 78.29969522 -30.61035156 82.1184082 C-30.61937635 84.84788384 -30.62989263 87.57735325 -30.64035034 90.30682373 C-30.66212067 96.19339481 -30.68026312 102.07996816 -30.69595528 107.96655846 C-30.71864884 116.47762371 -30.74679238 124.98866403 -30.77627455 133.49970815 C-30.82395677 147.30765577 -30.86721925 161.11561356 -30.90771484 174.92358398 C-30.94706657 188.33830559 -30.98849202 201.75301814 -31.03271484 215.16772461 C-31.03543912 215.99433421 -31.03816339 216.82094382 -31.04097021 217.6726022 C-31.05464964 221.81937815 -31.06836992 225.96615396 -31.08211052 230.1129297 C-31.19608519 264.52530031 -31.30289236 298.93768993 -31.4050293 333.35009766 C-32.33400024 333.80364624 -32.33400024 333.80364624 -33.28173828 334.26635742 C-50.09794678 342.84944924 -60.99189838 358.94070126 -66.77563477 376.28979492 C-72.37714669 394.62616385 -70.31113806 414.61038867 -61.8737793 431.76806641 C-52.29850263 448.60119905 -38.14731433 461.11524298 -19.4284668 466.54931641 C-18.02684742 466.92799214 -16.62317308 467.2991451 -15.2175293 467.66259766 C-14.56453857 467.8342041 -13.91154785 468.00581055 -13.23876953 468.18261719 C-8.32912919 469.36815038 -4.68589822 469.35009766 0.5949707 469.35009766 C0.5949707 461.10009766 0.5949707 452.85009766 0.5949707 444.35009766 C-3.8600293 442.86509766 -3.8600293 442.86509766 -8.4050293 441.35009766 C-21.4811844 436.57928228 -31.5582503 429.97176419 -38.2175293 417.41259766 C-43.65070329 405.67050781 -43.90634375 393.69157561 -39.7253418 381.45556641 C-35.5109802 371.54308869 -27.89078535 362.58381765 -17.9050293 358.22509766 C-16.7500293 357.60634766 -15.5950293 356.98759766 -14.4050293 356.35009766 C-13.27892122 352.09749041 -13.28707717 347.90568022 -13.30496216 343.52552795 C-13.30622443 342.86380488 -13.3074867 342.20208181 -13.30878723 341.52030653 C-13.31413862 339.31647302 -13.32665917 337.11273947 -13.33911133 334.90893555 C-13.34430794 333.32337083 -13.34901539 331.73780445 -13.35327148 330.15223694 C-13.36319356 326.74412074 -13.37603604 323.3360324 -13.39099503 319.92793465 C-13.41410251 314.53614995 -13.42737486 309.14436895 -13.43869019 303.75254822 C-13.47208821 288.42246765 -13.5137585 273.09244204 -13.57641602 257.76245117 C-13.61095847 249.29098622 -13.63475426 240.81956172 -13.64662445 232.34803385 C-13.6547137 226.99092049 -13.67593701 221.63407225 -13.70682931 216.27704442 C-13.72286216 212.94105765 -13.72624878 209.60514658 -13.72605896 206.26912498 C-13.7284759 204.72560037 -13.73603165 203.18207366 -13.74918747 201.63860321 C-13.76643893 199.52604042 -13.76498066 197.4142582 -13.75906372 195.301651 C-13.76312792 194.12125276 -13.76719212 192.94085451 -13.77137947 191.72468662 C-13.24170629 186.84566815 -11.70826775 182.9679109 -8.5925293 179.10009766 C-6.03074938 177.05067373 -3.37098871 175.73421205 -0.4050293 174.35009766 C0.85883401 173.30923818 0.85883401 173.30923818 0.71801853 171.0093832 C0.71709674 169.96314816 0.71617495 168.91691313 0.71522522 167.838974 C0.71659988 166.64278946 0.71797455 165.44660492 0.71939087 164.21417236 C0.71585127 162.87658667 0.71221645 161.53900122 0.70849609 160.20141602 C0.70821422 158.80227155 0.70837195 157.40312693 0.7089386 156.00398254 C0.70922659 152.19423306 0.70332968 148.3845148 0.69636464 144.5747726 C0.69013129 140.59758457 0.68952732 136.6203959 0.68833923 132.64320374 C0.68522586 125.10671226 0.6770124 117.57023522 0.66698974 110.03375012 C0.65582879 101.45589937 0.6503182 92.87804795 0.64529431 84.30019176 C0.63482979 66.6501522 0.61723023 49.00012608 0.5949707 31.35009766 C-8.81845149 31.22737357 -15.59758474 34.61681368 -22.42456055 41.05712891 Z " fill="#E2DFF3" transform="translate(311.405029296875,-0.35009765625)"/>
<path d="M0 0 C18.29041559 -0.79523546 31.21473458 4.30949021 45.25 16.3125 C56.10224408 26.47680468 63.17893834 39.69871718 64.17637622 54.64249802 C64.23419151 57.48299008 64.23150197 60.31676165 64.20445251 63.15771484 C64.20248369 64.23726126 64.20051487 65.31680767 64.19848639 66.42906761 C64.18977924 70.02312181 64.16691231 73.61694613 64.14428711 77.2109375 C64.13557171 79.79713626 64.12789801 82.38333872 64.1211853 84.96954346 C64.10795275 89.80919497 64.09106263 94.6488102 64.06984908 99.48843336 C64.02831946 108.99799503 64.01292051 118.50744551 64.00697327 128.01708984 C64.00590955 129.51732446 64.00483421 131.01755906 64.0037474 132.51779366 C64.00213277 134.79078024 64.00054484 137.06376683 63.999027 139.33675349 C63.99326792 147.89052127 63.98520949 156.44428458 63.97387695 164.99804688 C63.97285115 165.77929106 63.97182535 166.56053524 63.97076846 167.36545348 C63.953089 180.03260582 63.90240048 192.6994467 63.84139567 205.36645484 C63.77962044 218.39142754 63.75989009 231.41600986 63.77733427 244.44111824 C63.78662953 252.4652032 63.76242367 260.48775555 63.69472129 268.51156664 C63.64618379 274.66207828 63.65545068 280.8112772 63.68600082 286.96187592 C63.68939642 289.47977157 63.67400911 291.99777456 63.63828087 294.51541901 C62.80251896 307.75550604 62.80251896 307.75550604 67.40463448 319.6305542 C70.14852481 322.14352055 72.84822382 324.04427369 76 326 C93.94670695 343.7891645 104.09563816 369.07179604 104.3293457 394.18237305 C104.32378662 395.21531494 104.31822754 396.24825684 104.3125 397.3125 C104.30512817 398.94989136 104.30512817 398.94989136 104.29760742 400.62036133 C103.936577 425.59811246 94.56048566 447.6320277 78 466 C77.15404331 467.03229077 76.3115538 468.06743317 75.47265625 469.10546875 C62.30559588 484.51904179 39.23229455 497.62490455 19 500 C12.65383733 500.29313717 6.35525177 500.13716371 0 500 C0 490.1 0 480.2 0 470 C3.2175 469.9071875 3.2175 469.9071875 6.5 469.8125 C24.02174941 468.81694606 41.03087254 461.35097258 53.015625 448.375 C68.06580068 430.36219132 74.62352934 412.85042751 73.22314453 389.45214844 C72.26970474 378.97474228 68.31370548 369.8836751 63.390625 360.73046875 C62 358 62 358 62 356 C61.34 356 60.68 356 60 356 C59.649375 355.13375 59.29875 354.2675 58.9375 353.375 C56.91129718 349.84548542 54.95397218 347.97697126 51.81640625 345.4921875 C50 344 50 344 48.06640625 342.046875 C45.95058839 339.95105542 43.74564355 338.17478624 41.375 336.375 C39.10909628 334.65110647 37.01421889 333.01421889 35 331 C34.75094432 329.00210297 34.75094432 329.00210297 34.75225353 326.49264717 C34.74787153 325.53813168 34.74348954 324.58361618 34.73897475 323.60017598 C34.74432008 322.54417632 34.74966542 321.48817665 34.75517273 320.400177 C34.75290816 319.28395804 34.75064358 318.16773908 34.74831039 317.01769531 C34.74298422 313.25148626 34.75187009 309.48543933 34.76049805 305.71923828 C34.75938594 303.029083 34.75745571 300.33894093 34.75439453 297.64878845 C34.74916395 291.841329 34.75067333 286.03390288 34.75617027 280.22644424 C34.76437764 271.04041056 34.75315989 261.85444892 34.7389679 252.66842651 C34.73436629 249.52553766 34.72991597 246.38264861 34.72552967 243.23975945 C34.72443153 242.45420519 34.72333339 241.66865094 34.72220197 240.85929201 C34.71002073 231.91140582 34.7024745 222.96351731 34.6965332 214.015625 C34.69598514 213.19748467 34.69543708 212.37934433 34.69487242 211.53641187 C34.68642536 198.2979596 34.68974462 185.05952771 34.69568755 171.82107534 C34.70131272 158.22460039 34.68773001 144.62822766 34.65813476 131.03178394 C34.64062345 122.64943824 34.63892548 114.26738857 34.65777991 105.88504438 C34.66942062 100.13205388 34.66288111 94.3792623 34.6423107 88.62629755 C34.63103285 85.31116384 34.63047574 81.99696477 34.64648628 78.68178749 C34.66265202 75.07727326 34.64789419 71.4741137 34.6257782 67.86965942 C34.6378157 66.83596698 34.64985319 65.80227453 34.66225547 64.73725808 C34.54304913 55.15998713 31.76225384 46.5600985 25.125 39.5 C16.76002908 32.03348892 12.16542538 31.73791791 0 30 C0 20.1 0 10.2 0 0 Z " fill="#BDBCDC" transform="translate(313,0)"/>
<path d="M0 0 C2.75 2.3125 2.75 2.3125 5 5 C5.5331825 5.57239788 6.06636499 6.14479576 6.61570454 6.73453903 C8.53937129 9.88270505 8.38516742 12.25740551 8.39872742 15.93487549 C8.40537424 16.63249709 8.41202107 17.33011869 8.41886932 18.04888034 C8.43751837 20.3859254 8.43489284 22.72245934 8.43237305 25.05957031 C8.44138907 26.73502324 8.4517159 28.41046955 8.46325684 30.08590698 C8.49087179 34.63512915 8.50011745 39.18422632 8.50611091 43.73352146 C8.51548288 48.48749828 8.5416853 53.2413813 8.56611633 57.99530029 C8.60981743 66.9978874 8.63834221 76.00045635 8.66143972 85.00311732 C8.68847204 95.25216205 8.73238476 105.50111259 8.77772844 115.75009012 C8.87062642 136.83334277 8.94228356 157.91662362 9 179 C10.32 179.33 11.64 179.66 13 180 C13 180.66 13 181.32 13 182 C13.86625 182.226875 14.7325 182.45375 15.625 182.6875 C19.66573255 184.25889599 21.87197109 186.02092484 25 189 C25 189.66 25 190.32 25 191 C25.99 191.33 26.98 191.66 28 192 C36.1649822 201.14307902 37.70369988 212.23956867 37.26953125 224.0703125 C36.28447551 238.4321397 30.12145022 246.16108615 20 256 C12.55238934 261.71560818 4.31232621 264.60630816 -5 265 C-6.39025391 265.11214844 -6.39025391 265.11214844 -7.80859375 265.2265625 C-18.17243334 265.73868981 -27.10318164 262.25946527 -35.12890625 255.71875 C-45.02339147 246.62987005 -51.02069317 236.69704388 -52.25390625 223.2265625 C-52.80609029 209.65352266 -48.01094739 199.10541655 -39.2734375 189.00390625 C-35.42396913 184.91714188 -31.10378827 181.40765664 -26 179 C-25.01 179 -24.02 179 -23 179 C-21.56083518 176.12167035 -21.85866728 173.63744955 -21.84178162 170.41952515 C-21.83684364 169.73586305 -21.83190566 169.05220096 -21.82681805 168.34782183 C-21.81140222 166.04617411 -21.80307143 163.74455436 -21.79467773 161.44287109 C-21.78510241 159.79727429 -21.77509254 158.15167997 -21.76467896 156.50608826 C-21.7375863 152.02909256 -21.71660039 147.55208627 -21.69667697 143.07505369 C-21.67484426 138.39983905 -21.64744232 133.7246572 -21.62062073 129.04946899 C-21.57065704 120.1920201 -21.52573188 111.33455304 -21.48259836 102.47706854 C-21.43325736 92.39496744 -21.37832762 82.31289925 -21.32291877 72.23082995 C-21.20904231 51.48725061 -21.10221564 30.74363987 -21 10 C-20.34 10 -19.68 10 -19 10 C-18.9175 9.21625 -18.835 8.4325 -18.75 7.625 C-18 5 -18 5 -16.125 3.6875 C-14 3 -14 3 -11 3 C-10.67 2.01 -10.34 1.02 -10 0 C-6.1544104 -1.2818632 -3.93271581 -0.94927623 0 0 Z " fill="#FD7C48" transform="translate(320,177)"/>
<path d="M0 0 C4.60849477 2.21890489 8.08999904 5.19527145 10 10 C10.60918648 14.59910304 10.56361651 19.17432417 10.54589844 23.80810547 C10.55463944 25.21785113 10.56512707 26.62758688 10.57722473 28.03730774 C10.60504132 31.85302569 10.60849039 35.66841923 10.60750484 39.48422384 C10.61063771 43.47613858 10.63626366 47.467908 10.65948486 51.45974731 C10.70001988 59.01377142 10.72037967 66.56770924 10.73345876 74.12182534 C10.74933729 82.72405466 10.78775649 91.32613735 10.82805204 99.92828155 C10.91041676 117.61880798 10.96453026 135.30932051 11 153 C11.60473145 152.37955811 11.60473145 152.37955811 12.22167969 151.74658203 C14.05913675 149.86743654 15.9044431 147.99618964 17.75 146.125 C18.38421875 145.47402344 19.0184375 144.82304687 19.671875 144.15234375 C20.290625 143.52714844 20.909375 142.90195312 21.546875 142.2578125 C22.11245117 141.6817627 22.67802734 141.10571289 23.26074219 140.51220703 C27.43138682 136.88601769 31.16581211 136.5612544 36.53125 136.6875 C41.50203702 137.31671355 44.09431623 140.02281488 47.375 143.5625 C49.75263065 148.5921033 50.21060496 152.55981074 49 158 C47.30786133 160.39306641 47.30786133 160.39306641 45.08203125 162.7265625 C44.26597412 163.58958984 43.44991699 164.45261719 42.60913086 165.34179688 C41.74811768 166.21900391 40.88710449 167.09621094 40 168 C39.17443604 168.84111328 38.34887207 169.68222656 37.49829102 170.54882812 C34.97247875 173.09014221 32.42792175 175.61093551 29.875 178.125 C24.55446687 183.36528376 19.37033264 188.62144377 14.50585938 194.28955078 C12.57552692 196.48214306 10.50479468 198.44641042 8.3125 200.375 C7.58675781 201.02210938 6.86101562 201.66921875 6.11328125 202.3359375 C2.45691471 205.21507271 -0.20364038 206.29067122 -4.875 206.3125 C-5.69742188 206.32925781 -6.51984375 206.34601563 -7.3671875 206.36328125 C-12.8154183 205.6115224 -16.69577927 202.67989487 -20.50488281 198.88330078 C-21.33884583 198.05879425 -22.17280884 197.23428772 -23.03204346 196.38479614 C-23.91350037 195.49726654 -24.79495728 194.60973694 -25.703125 193.6953125 C-26.62212585 192.77918182 -27.54112671 191.86305115 -28.48797607 190.91915894 C-30.42593303 188.9856088 -32.35840085 187.04677811 -34.28710938 185.10400391 C-36.75389681 182.62010157 -39.23394271 180.14994488 -41.71825027 177.6835804 C-44.09552886 175.31977278 -46.46128644 172.94457397 -48.828125 170.5703125 C-50.16245575 169.24509079 -50.16245575 169.24509079 -51.52374268 167.89309692 C-52.34509705 167.06228607 -53.16645142 166.23147522 -54.01269531 165.37548828 C-54.73628235 164.64951447 -55.45986938 163.92354065 -56.2053833 163.17556763 C-59.01113485 159.77422725 -60.2854649 156.39764729 -60.25 152 C-60.25515625 151.360625 -60.2603125 150.72125 -60.265625 150.0625 C-59.79399393 146.40042342 -58.81655786 143.7958418 -56.15234375 141.19921875 C-51.45344621 137.99203471 -47.9713876 136.33414159 -42.23828125 136.49609375 C-35.65953127 137.97717359 -31.61834005 141.99592436 -27.125 146.6875 C-26.53203125 147.29400391 -25.9390625 147.90050781 -25.328125 148.52539062 C-23.87844078 150.01014785 -22.43823532 151.50414991 -21 153 C-20.99853344 152.26854704 -20.99706688 151.53709408 -20.99555588 150.78347588 C-20.95849507 132.98093971 -20.89949005 115.17859989 -20.81609726 97.3762188 C-20.77629748 88.76708541 -20.74390978 80.15804357 -20.72900391 71.54882812 C-20.71599223 64.04452837 -20.68904005 56.54042993 -20.64538693 49.03624356 C-20.62276107 45.06323539 -20.60708998 41.09047562 -20.60811615 37.11739731 C-20.60886211 33.37605188 -20.59093769 29.63525579 -20.55883217 25.89405251 C-20.54628161 23.86990291 -20.55340219 21.84566114 -20.56114197 19.82148743 C-20.43408385 8.75777439 -20.43408385 8.75777439 -16 4 C-11.06315928 -0.46666541 -6.39116001 -1.02008743 0 0 Z " fill="#8AB7FD" transform="translate(143,175)"/>
<path d="M0 0 C0.82242188 -0.02835938 1.64484375 -0.05671875 2.4921875 -0.0859375 C10.27746758 1.27706406 15.76052314 8.81956643 21 14.1875 C26.28536268 19.57983778 31.56802589 24.84560398 37.30273438 29.75952148 C40.20525861 32.332673 42.8247796 35.13730766 45.4375 38 C45.94861328 38.5465625 46.45972656 39.093125 46.98632812 39.65625 C52.37032658 45.50933545 54.71669611 49.60487689 54.4765625 57.71484375 C53.84071586 62.5260833 51.54161708 65.08716629 48.0625 68.25 C42.65956797 70.31920801 36.72140145 70.43893808 31.34741211 68.23681641 C27.50627132 66.01751649 24.79186666 63.3758269 21.75 60.1875 C21.20472656 59.62869141 20.65945312 59.06988281 20.09765625 58.49414062 C18.76643231 57.12788448 17.4447169 55.75237443 16.125 54.375 C16.12353344 55.10129923 16.12206688 55.82759846 16.12055588 56.57590675 C16.08349455 74.25327018 16.02448888 91.93042411 15.94109726 109.60762978 C15.90129801 118.15622902 15.86891004 126.70473609 15.85400391 135.25341797 C15.84099195 142.70498075 15.81403907 150.15634079 15.77038693 157.6077894 C15.74776169 161.55285231 15.73208994 165.49766507 15.73311615 169.44279861 C15.73386215 173.15788083 15.71593626 176.87240986 15.68383217 180.58734894 C15.67128249 182.59718488 15.6784019 184.60711365 15.68614197 186.61697388 C15.55906703 197.60529988 15.55906703 197.60529988 11.125 202.375 C6.77438655 206.31126932 3.20722994 207.01383919 -2.4765625 206.7578125 C-7.24018867 205.99749432 -9.82297697 203.50665506 -13.00494385 200.08383179 C-16.2953868 194.95113295 -15.4434765 188.52152897 -15.42089844 182.65869141 C-15.42963956 181.25879775 -15.44012722 179.85891408 -15.45222473 178.45904541 C-15.48003995 174.67018553 -15.48349042 170.88165239 -15.48250484 167.09270525 C-15.48563783 163.12881722 -15.51126403 159.16507551 -15.53448486 155.20126343 C-15.57501897 147.70036329 -15.59537945 140.19955003 -15.60845876 132.69855726 C-15.6243376 124.15678574 -15.66275693 115.61516188 -15.70305204 107.07347608 C-15.78541552 89.50736146 -15.83952978 71.94127061 -15.875 54.375 C-17.19564453 55.74785156 -17.19564453 55.74785156 -18.54296875 57.1484375 C-19.71573976 58.34935502 -20.88893949 59.54985398 -22.0625 60.75 C-22.64064453 61.35328125 -23.21878906 61.9565625 -23.81445312 62.578125 C-27.67093615 66.49997214 -30.7145724 68.98933768 -36.33984375 69.67578125 C-41.57886745 69.70061075 -45.4657302 69.52447843 -49.875 66.375 C-54.09596137 61.93188277 -54.33900929 58.0061919 -54.40625 52.15625 C-52.95325143 44.54937515 -45.90011217 39.10990542 -40.65625 33.890625 C-39.76135864 32.99382019 -38.86646729 32.09701538 -37.94445801 31.17303467 C-36.05734078 29.28455993 -34.16834903 27.39822101 -32.27587891 25.51513672 C-29.85480546 23.10548969 -27.44286691 20.68692928 -25.03348541 18.2655983 C-22.72509943 15.94824013 -20.40909885 13.63852319 -18.09375 11.328125 C-17.23011841 10.46044495 -16.36648682 9.59276489 -15.47668457 8.6987915 C-14.66904663 7.89745789 -13.86140869 7.09612427 -13.02929688 6.27050781 C-11.96817688 5.2117746 -11.96817688 5.2117746 -10.88562012 4.13165283 C-7.40470851 1.09042531 -4.5970644 0.07160536 0 0 Z " fill="#FD7D47" transform="translate(78.875,57.625)"/>
<path d="M0 0 C10 3 10 3 12.59256363 5.73903847 C14.20388492 9.47239143 14.50698192 12.11337965 14.51898193 16.17538452 C14.52648319 16.87471497 14.53398444 17.57404542 14.541713 18.2945677 C14.5619278 20.62555807 14.55390032 22.95556992 14.54589844 25.28662109 C14.55463688 26.9623714 14.56512361 28.63811337 14.57722473 30.31384277 C14.60507226 34.85473144 14.60848969 39.39534768 14.60750484 43.93630934 C14.61063501 48.68494733 14.63625541 53.43346281 14.65948486 58.18203735 C14.70004039 67.17040842 14.72038453 76.15870694 14.73345876 85.1471554 C14.7493303 95.38174772 14.7877466 105.61621662 14.82805204 115.85073733 C14.91044488 136.90045084 14.96454086 157.95015854 15 179 C16.32 179.33 17.64 179.66 19 180 C19 180.66 19 181.32 19 182 C20.299375 182.3403125 20.299375 182.3403125 21.625 182.6875 C25.66573255 184.25889599 27.87197109 186.02092484 31 189 C31 189.66 31 190.32 31 191 C31.99 191.33 32.98 191.66 34 192 C42.1649822 201.14307902 43.70369988 212.23956867 43.26953125 224.0703125 C42.28597539 238.41027178 36.13706523 246.19313234 26 256 C17.10541566 262.48563442 12.00078775 262.19994748 0 263 C0 176.21 0 89.42 0 0 Z " fill="#FC405C" transform="translate(314,177)"/>
<path d="M0 0 C7.87723214 0 7.87723214 0 10.9375 3 C11.60652344 3.64066406 12.27554688 4.28132813 12.96484375 4.94140625 C13.63644531 5.62074219 14.30804688 6.30007812 15 7 C15.99193359 7.97259766 15.99193359 7.97259766 17.00390625 8.96484375 C19.69850087 11.6277993 22.34726415 14.33451541 25 17.0390625 C28.27265248 20.35006637 31.57532679 23.54902979 35.10546875 26.5859375 C38.75360055 29.73023296 42.06785345 33.069922 45.3125 36.625 C45.82361328 37.1715625 46.33472656 37.718125 46.86132812 38.28125 C52.24532658 44.13433545 54.59169611 48.22987689 54.3515625 56.33984375 C53.71571586 61.1510833 51.41661708 63.71216629 47.9375 66.875 C42.53456797 68.94420801 36.59640145 69.06393808 31.22241211 66.86181641 C27.38127132 64.64251649 24.66686666 62.0008269 21.625 58.8125 C21.07972656 58.25369141 20.53445312 57.69488281 19.97265625 57.11914062 C18.64143231 55.75288448 17.3197169 54.37737443 16 53 C15.99853344 53.72629923 15.99706688 54.45259846 15.99555588 55.20090675 C15.95849455 72.87827018 15.89948888 90.55542411 15.81609726 108.23262978 C15.77629801 116.78122902 15.74391004 125.32973609 15.72900391 133.87841797 C15.71599195 141.32998075 15.68903907 148.78134079 15.64538693 156.2327894 C15.62276169 160.17785231 15.60708994 164.12266507 15.60811615 168.06779861 C15.60886215 171.78288083 15.59093626 175.49740986 15.55883217 179.21234894 C15.54628249 181.22218488 15.5534019 183.23211365 15.56114197 185.24197388 C15.43355957 196.27418077 15.43355957 196.27418077 11 201 C6.80747596 204.38970029 5.5540492 205 0 205 C0 137.35 0 69.7 0 0 Z " fill="#FC405C" transform="translate(79,59)"/>
<path d="M0 0 C5.72043683 -0.45763495 8.59883843 0.28346356 13 4 C18.40154841 9.76415058 17.57478166 16.25431814 17.54589844 23.80810547 C17.55463944 25.21785113 17.56512707 26.62758688 17.57722473 28.03730774 C17.60504132 31.85302569 17.60849039 35.66841923 17.60750484 39.48422384 C17.61063771 43.47613858 17.63626366 47.467908 17.65948486 51.45974731 C17.70001988 59.01377142 17.72037967 66.56770924 17.73345876 74.12182534 C17.74933729 82.72405466 17.78775649 91.32613735 17.82805204 99.92828155 C17.91041676 117.61880798 17.96453026 135.30932051 18 153 C18.4031543 152.58637207 18.80630859 152.17274414 19.22167969 151.74658203 C21.05913675 149.86743654 22.9044431 147.99618964 24.75 146.125 C25.38421875 145.47402344 26.0184375 144.82304687 26.671875 144.15234375 C27.290625 143.52714844 27.909375 142.90195312 28.546875 142.2578125 C29.11245117 141.6817627 29.67802734 141.10571289 30.26074219 140.51220703 C34.43138682 136.88601769 38.16581211 136.5612544 43.53125 136.6875 C48.50203702 137.31671355 51.09431623 140.02281488 54.375 143.5625 C56.75263065 148.5921033 57.21060496 152.55981074 56 158 C54.30786133 160.39306641 54.30786133 160.39306641 52.08203125 162.7265625 C51.26597412 163.58958984 50.44991699 164.45261719 49.60913086 165.34179688 C48.74811768 166.21900391 47.88710449 167.09621094 47 168 C46.17443604 168.84111328 45.34887207 169.68222656 44.49829102 170.54882812 C41.97247875 173.09014221 39.42792175 175.61093551 36.875 178.125 C31.55446687 183.36528376 26.37033264 188.62144377 21.50585938 194.28955078 C19.57552692 196.48214306 17.50479468 198.44641042 15.3125 200.375 C14.58675781 201.02210938 13.86101562 201.66921875 13.11328125 202.3359375 C9.04804181 205.53703177 7.39363938 206 2 206 C2 138.35 2 70.7 2 1 C1.34 0.67 0.68 0.34 0 0 Z " fill="#7D81E5" transform="translate(136,175)"/>
<path d="M0 0 C0.84858582 -0.00807175 1.69717163 -0.01614349 2.57147217 -0.02445984 C4.37038122 -0.03830316 6.16931657 -0.04902421 7.96826172 -0.05688477 C10.70982228 -0.07406489 13.45016656 -0.11794359 16.19140625 -0.16210938 C17.94009531 -0.17223936 19.68879461 -0.1807545 21.4375 -0.1875 C22.66125336 -0.21376213 22.66125336 -0.21376213 23.909729 -0.24055481 C29.25535111 -0.22034682 32.22739401 0.72204714 36.484375 4.23828125 C39.91354572 7.93817598 40.78407249 10.81751615 40.984375 15.73828125 C40.78407249 20.65904635 39.91354572 23.53838652 36.484375 27.23828125 C31.45560188 31.36513425 27.813509 31.83238227 21.578125 31.76953125 C20.73519897 31.77335815 19.89227295 31.77718506 19.02380371 31.78112793 C17.24876708 31.78383941 15.47368998 31.77653182 13.69873047 31.75976562 C10.99225206 31.7383436 8.28842777 31.75959174 5.58203125 31.78515625 C3.85155668 31.78251284 2.12108375 31.77738757 0.390625 31.76953125 C-0.41266235 31.77762817 -1.21594971 31.7857251 -2.0435791 31.79406738 C-8.22950944 31.69157433 -11.61746871 29.73669184 -16.328125 25.67578125 C-19.75575742 21.526542 -18.92316725 15.28439529 -18.515625 10.23828125 C-15.04393865 1.65042553 -8.38431747 0.07516925 0 0 Z " fill="#484183" transform="translate(434.515625,291.76171875)"/>
<path d="M0 0 C0.84858582 -0.00807175 1.69717163 -0.01614349 2.57147217 -0.02445984 C4.37038122 -0.03830316 6.16931657 -0.04902421 7.96826172 -0.05688477 C10.70982228 -0.07406489 13.45016656 -0.11794359 16.19140625 -0.16210938 C17.94009531 -0.17223936 19.68879461 -0.1807545 21.4375 -0.1875 C22.66125336 -0.21376213 22.66125336 -0.21376213 23.909729 -0.24055481 C29.25535111 -0.22034682 32.22739401 0.72204714 36.484375 4.23828125 C39.91354572 7.93817598 40.78407249 10.81751615 40.984375 15.73828125 C40.78407249 20.65904635 39.91354572 23.53838652 36.484375 27.23828125 C31.45560188 31.36513425 27.813509 31.83238227 21.578125 31.76953125 C20.73519897 31.77335815 19.89227295 31.77718506 19.02380371 31.78112793 C17.24876708 31.78383941 15.47368998 31.77653182 13.69873047 31.75976562 C10.99225206 31.7383436 8.28842777 31.75959174 5.58203125 31.78515625 C3.85155668 31.78251284 2.12108375 31.77738757 0.390625 31.76953125 C-0.41266235 31.77762817 -1.21594971 31.7857251 -2.0435791 31.79406738 C-8.22950944 31.69157433 -11.61746871 29.73669184 -16.328125 25.67578125 C-19.75575742 21.526542 -18.92316725 15.28439529 -18.515625 10.23828125 C-15.04393865 1.65042553 -8.38431747 0.07516925 0 0 Z " fill="#4D4686" transform="translate(434.515625,174.76171875)"/>
<path d="M0 0 C0.84858582 -0.00807175 1.69717163 -0.01614349 2.57147217 -0.02445984 C4.37038122 -0.03830316 6.16931657 -0.04902421 7.96826172 -0.05688477 C10.70982228 -0.07406489 13.45016656 -0.11794359 16.19140625 -0.16210938 C17.94009531 -0.17223936 19.68879461 -0.1807545 21.4375 -0.1875 C22.66125336 -0.21376213 22.66125336 -0.21376213 23.909729 -0.24055481 C29.25535111 -0.22034682 32.22739401 0.72204714 36.484375 4.23828125 C40.74049893 8.83041496 40.90412448 12.66816828 40.8203125 18.65234375 C40.3731727 22.09428037 39.46906396 24.34817497 36.86672974 26.70054626 C31.54851291 30.14988708 27.44345271 30.96935923 21.1640625 30.8671875 C19.87062424 30.87080544 19.87062424 30.87080544 18.55105591 30.87449646 C16.74085864 30.873523 14.93062973 30.86025005 13.12060547 30.83520508 C10.35931982 30.80078056 7.60122022 30.81460027 4.83984375 30.83398438 C3.07290314 30.82708782 1.30597072 30.81741715 -0.4609375 30.8046875 C-1.27982452 30.80964737 -2.09871155 30.81460724 -2.94241333 30.81971741 C-9.1891443 30.69199856 -12.90263492 28.88985979 -17.3671875 24.359375 C-18.88318322 21.55942372 -18.9146233 19.4725564 -18.890625 16.30078125 C-18.89835937 15.28113281 -18.90609375 14.26148437 -18.9140625 13.2109375 C-18.29280781 8.57589026 -16.42055471 6.03285368 -12.953125 2.98828125 C-8.65096316 -0.10045033 -5.15533815 0.04621997 0 0 Z " fill="#474082" transform="translate(434.515625,57.76171875)"/>
<path d="M0 0 C1.05896484 -0.01998047 2.11792969 -0.03996094 3.20898438 -0.06054688 C9.72821589 -0.05647998 13.76841653 0.5570955 19.0625 4.4375 C22.71308943 8.32361133 22.56769224 12.68530324 22.41015625 17.78125 C21.75526988 22.7848762 19.31635459 25.32455089 15.6640625 28.56640625 C10.95327293 31.6165526 5.47572058 31.01595247 0.0625 30.9375 C-1.53851563 30.96070313 -1.53851563 30.96070313 -3.171875 30.984375 C-9.44880481 30.95314649 -13.13797713 30.56016708 -17.9375 26.4375 C-18.9275 25.7775 -19.9175 25.1175 -20.9375 24.4375 C-22.82135866 19.49099392 -22.44149951 13.61946675 -21.9375 8.4375 C-17.33302899 -0.24015691 -8.72281254 -0.05818735 0 0 Z " fill="#484181" transform="translate(437.9375,116.5625)"/>
<path d="M0 0 C1.58071289 -0.00966797 1.58071289 -0.00966797 3.19335938 -0.01953125 C9.36236316 0.06598739 13.1075423 0.5468541 17.8125 4.625 C18.410625 5.140625 19.00875 5.65625 19.625 6.1875 C22.88687345 10.13608365 22.23673583 15.8118517 21.8125 20.625 C19.8612667 25.34903852 16.36307782 28.34971109 11.8125 30.625 C7.90215868 30.92142382 3.98275557 30.90307153 0.0625 30.9375 C-1.02289063 30.96650391 -2.10828125 30.99550781 -3.2265625 31.02539062 C-9.59894632 31.07602693 -13.32621133 30.85118483 -18.1875 26.625 C-19.1775 25.965 -20.1675 25.305 -21.1875 24.625 C-22.26177471 21.40217587 -22.3207963 19.00988847 -22.3125 15.625 C-22.31507813 14.573125 -22.31765625 13.52125 -22.3203125 12.4375 C-22.1686892 9.22665366 -21.90272698 7.3164536 -19.54956055 5.04150391 C-13.06543931 0.34986635 -7.87576438 -0.24353013 0 0 Z " fill="#474081" transform="translate(438.1875,233.375)"/>
<path d="M0 0 C-2.33214148 1.20628008 -4.49642139 2.1654738 -7 3 C-7.33 3.66 -7.66 4.32 -8 5 C-9.155 5.45375 -10.31 5.9075 -11.5 6.375 C-15.10642443 7.57589733 -15.10642443 7.57589733 -15.9375 10.1875 C-15.958125 10.785625 -15.97875 11.38375 -16 12 C-16.66 12 -17.32 12 -18 12 C-18 67.77 -18 123.54 -18 181 C-18.33 181 -18.66 181 -19 181 C-19.82617212 176.6717678 -20.12934064 172.57919694 -20.14044189 168.1754303 C-20.14341302 167.51370723 -20.14638414 166.85198416 -20.1494453 166.17020887 C-20.15807467 163.96640549 -20.1596356 161.76265679 -20.16113281 159.55883789 C-20.16576492 157.97327052 -20.17079011 156.38770426 -20.17617798 154.80213928 C-20.1892626 150.50464138 -20.19573875 146.20715906 -20.20018864 141.90964437 C-20.20312459 139.22303449 -20.20723029 136.53642883 -20.21169281 133.84982109 C-20.22535484 125.43873397 -20.23502889 117.02765654 -20.2388947 108.61655909 C-20.2433781 98.91619103 -20.26094451 89.21596369 -20.2898953 79.51563841 C-20.31151766 72.00973474 -20.32159921 64.50387067 -20.32293582 56.99793619 C-20.32398307 52.51805511 -20.32987441 48.03830655 -20.34775543 43.55845833 C-20.36424663 39.34524425 -20.36638658 35.1322622 -20.35761642 30.91902733 C-20.35684672 29.37551374 -20.36118 27.83198762 -20.37107468 26.28850555 C-20.38382052 24.17591363 -20.37790408 22.06414042 -20.36749268 19.95155334 C-20.36969252 18.18095598 -20.36969252 18.18095598 -20.3719368 16.37458897 C-19.79733153 11.16118552 -18.05689793 7.32112241 -14.75 3.1875 C-10.13435281 -0.48403754 -5.6987048 -1.72688024 0 0 Z " fill="#F1BDAB" transform="translate(317,175)"/>
<path d="M0 0 C0.33 0 0.66 0 1 0 C1.33 81.51 1.66 163.02 2 247 C5.96 246.67 9.92 246.34 14 246 C10.03239403 249.96760597 2.34410015 249.09924562 -3.0625 249.25 C-8.38030335 249.22276413 -12.19147712 248.21931825 -17 246 C-17 245.67 -17 245.34 -17 245 C-15.45808846 245.14322103 -13.91648108 245.28971789 -12.375 245.4375 C-11.08722656 245.55931641 -11.08722656 245.55931641 -9.7734375 245.68359375 C-6.83528029 246.01879197 -3.91697976 246.51383671 -1 247 C-0.67 165.49 -0.34 83.98 0 0 Z " fill="#FF7853" transform="translate(312,193)"/>
<path d="M0 0 C0.91007812 0.00902344 1.82015625 0.01804688 2.7578125 0.02734375 C3.45648438 0.03894531 4.15515625 0.05054688 4.875 0.0625 C2.895 1.0525 2.895 1.0525 0.875 2.0625 C0.545 69.3825 0.215 136.7025 -0.125 206.0625 C-8 204.9375 -8 204.9375 -11.125 201.0625 C-7.14375869 201.63124876 -4.51227672 202.93904754 -1.125 205.0625 C-1.23211308 178.88986811 -1.34485156 152.71726573 -1.46433926 126.54468727 C-1.51968388 114.39308267 -1.57316789 102.24147513 -1.62231445 90.08984375 C-1.66514113 79.50197774 -1.71141526 68.91413345 -1.76187855 58.32630098 C-1.78849172 52.71698777 -1.81334509 47.1076789 -1.83407402 41.49834061 C-1.85361935 36.22400281 -1.87775677 30.94970641 -1.90549088 25.6754055 C-1.91487248 23.73473421 -1.92254375 21.79405383 -1.92841911 19.85336876 C-1.93666148 17.21344883 -1.95093281 14.57362991 -1.96678162 11.93374634 C-1.96775972 11.15749141 -1.96873783 10.38123649 -1.96974558 9.58145869 C-1.92585965 5.69394402 -1.92585965 5.69394402 -3.125 2.0625 C-5.14963255 1.41036708 -5.14963255 1.41036708 -7.125 1.0625 C-4.60024538 -0.19987731 -2.81299534 -0.03606404 0 0 Z " fill="#FD755E" transform="translate(79.125,57.9375)"/>
<path d="M0 0 C0.33 0 0.66 0 1 0 C1 66.99 1 133.98 1 203 C2.32 203 3.64 203 5 203 C5 202.34 5 201.68 5 201 C6.98 200.67 8.96 200.34 11 200 C7.37322508 204.4972009 6.47229575 204.07538632 0 205 C0 137.35 0 69.7 0 0 Z " fill="#F24E4A" transform="translate(79,59)"/>
<path d="M0 0 C0.33 0 0.66 0 1 0 C1.0700808 14.14271531 1.12278414 28.28540369 1.15543652 42.42825699 C1.17110635 48.99503849 1.19236894 55.56170351 1.22631836 62.12841797 C1.2588644 68.46317442 1.27684308 74.79781869 1.28463173 81.13265228 C1.29018376 83.55202755 1.30102522 85.97139654 1.31719017 88.39072418 C1.33890081 91.77396515 1.34196954 95.15673988 1.34057617 98.54003906 C1.35675491 100.04731316 1.35675491 100.04731316 1.3732605 101.58503723 C1.36913651 102.50767868 1.36501251 103.43032013 1.36076355 104.38092041 C1.36352893 105.18103672 1.36629431 105.98115303 1.36914349 106.80551529 C0.91138159 109.52681885 -0.21727706 110.93510273 -2 113 C-2.0467206 98.85726412 -2.08185618 84.71454022 -2.10362434 70.57174301 C-2.11407085 64.0049955 -2.12824595 57.43829975 -2.15087891 50.87158203 C-2.17257624 44.53683207 -2.18456209 38.20213197 -2.18975449 31.86734772 C-2.19345583 29.44798243 -2.20068341 27.02861993 -2.21146011 24.60927582 C-2.22593355 21.2261104 -2.22797966 17.84315222 -2.22705078 14.45996094 C-2.23424133 13.45511154 -2.24143188 12.45026215 -2.24884033 11.41496277 C-2.246091 10.49232132 -2.24334167 9.56967987 -2.24050903 8.61907959 C-2.24235262 7.81896328 -2.24419621 7.01884697 -2.24609566 6.19448471 C-1.97198363 3.75017234 -1.21947642 2.1187478 0 0 Z " fill="#F15B71" transform="translate(93,145)"/>
<path d="M0 0 C2.64 0 5.28 0 8 0 C8.28875 0.94875 8.5775 1.8975 8.875 2.875 C9.76825109 6.05211578 9.76825109 6.05211578 12 8 C12.24609566 10.91666603 12.24609566 10.91666603 12.24050903 14.73233032 C12.24221788 15.43232663 12.24392673 16.13232293 12.24568737 16.85353124 C12.24899444 19.21056217 12.23795878 21.56731149 12.22705078 23.92431641 C12.22648693 25.60931898 12.22680272 27.29432205 12.22793579 28.97932434 C12.22851132 33.56381318 12.2167247 38.14819807 12.20278788 42.73266268 C12.19031381 47.51996113 12.18911265 52.30726178 12.18673706 57.09457397 C12.18051249 66.16455966 12.1640885 75.23449733 12.14403808 84.30446184 C12.12170942 94.62836794 12.11069329 104.9522763 12.10064721 115.27620053 C12.0797231 136.51749386 12.04452819 157.75874391 12 179 C13.98 178.67 15.96 178.34 18 178 C18 179.32 18 180.64 18 182 C18.66 182 19.32 182 20 182 C20 182.66 20 183.32 20 184 C18.68 183.67 17.36 183.34 16 183 C16 182.34 16 181.68 16 181 C14.35 180.67 12.7 180.34 11 180 C10.99945523 179.13031806 10.99891047 178.26063612 10.99834919 177.36460018 C10.98337877 156.19860486 10.94092131 135.03282012 10.86790943 113.86694241 C10.83326342 103.63124142 10.80790441 93.39567506 10.80444336 83.15991211 C10.80140293 74.23790456 10.78090182 65.31613678 10.73947543 56.39422184 C10.71815092 51.6705229 10.70554201 46.94716479 10.71384621 42.22341728 C10.72138981 37.77533894 10.70555122 33.32795102 10.67193985 28.87999916 C10.66371028 27.24943959 10.66395233 25.61881131 10.67340279 23.98825836 C11.03318093 14.33045778 11.03318093 14.33045778 7.63456726 5.56483459 C5.10216655 3.09946237 3.40176914 1.87474063 0 1 C0 0.67 0 0.34 0 0 Z " fill="#F8C2D8" transform="translate(317,176)"/>
<path d="M0 0 C0 46.86 0 93.72 0 142 C0.66 142 1.32 142 2 142 C2.66 143.98 3.32 145.96 4 148 C3.01 148 2.02 148 1 148 C-1.02852938 144.62872162 -1.25777374 142.03335481 -1.2784729 138.12811279 C-1.28963638 136.92780426 -1.30079987 135.72749573 -1.31230164 134.49081421 C-1.31446182 133.17739044 -1.31662201 131.86396667 -1.31884766 130.51074219 C-1.32814763 129.11114931 -1.33831641 127.71156197 -1.34928894 126.3119812 C-1.3765953 122.51483026 -1.3917402 118.71771644 -1.40471697 114.92049313 C-1.42034474 110.9512856 -1.44713609 106.98215389 -1.4727478 103.01300049 C-1.51954187 95.49789395 -1.55628293 87.98277315 -1.58942068 80.46759534 C-1.62763763 71.91139122 -1.67704891 63.35526324 -1.72740483 54.79912329 C-1.83073402 37.19947124 -1.91999121 19.59977273 -2 2 C-3.32 2.99 -4.64 3.98 -6 5 C-5.625 3.0625 -5.625 3.0625 -5 1 C-3 0 -3 0 0 0 Z " fill="#ED8055" transform="translate(65,110)"/>
<path d="M0 0 C2.05439697 1.67346268 2.92386737 2.54914507 3.37231445 5.20483398 C3.3693335 6.04344971 3.36635254 6.88206543 3.36328125 7.74609375 C3.36263672 8.66583984 3.36199219 9.58558594 3.36132812 10.53320312 C3.34521484 11.49162109 3.32910156 12.45003906 3.3125 13.4375 C3.31572266 14.39205078 3.31894531 15.34660156 3.32226562 16.33007812 C3.26252141 24.09139433 3.26252141 24.09139433 1 28 C0.34 28 -0.32 28 -1 28 C-0.896875 28.66 -0.79375 29.32 -0.6875 30 C-1.14732242 34.41429526 -3.50741828 37.41246273 -6 41 C-6.99 40.67 -7.98 40.34 -9 40 C-8.60167969 39.56171875 -8.20335937 39.1234375 -7.79296875 38.671875 C1.59448657 27.43433724 0.36893846 13.82836 0 0 Z " fill="#F5BED2" transform="translate(356,385)"/>
<path d="M0 0 C1.64510941 0.00015915 3.29022379 0.00585551 4.93530273 0.01586914 C6.23164894 0.01799156 6.23164894 0.01799156 7.55418396 0.02015686 C10.32578941 0.025773 13.09731528 0.0383282 15.86889648 0.05102539 C17.74324428 0.05603831 19.61759334 0.06060158 21.49194336 0.06469727 C26.09679192 0.07574767 30.70158069 0.09302309 35.30639648 0.11352539 C34.97639648 1.10352539 34.64639648 2.09352539 34.30639648 3.11352539 C29.07366317 3.16288364 23.84106472 3.19922488 18.6081543 3.22338867 C16.82720582 3.2334597 15.04627392 3.24711724 13.26538086 3.2644043 C10.70869865 3.28860452 8.15223463 3.29999723 5.59545898 3.30883789 C4.79645172 3.31916046 3.99744446 3.32948303 3.17422485 3.34011841 C1.21682429 3.34051765 -0.74003428 3.23593608 -2.69360352 3.11352539 C-3.35360352 2.45352539 -4.01360352 1.79352539 -4.69360352 1.11352539 C-3.69360352 0.11352539 -3.69360352 0.11352539 0 0 Z " fill="#9C99B0" transform="translate(429.693603515625,291.886474609375)"/>
<path d="M0 0 C2.56400777 2.56400777 2.32633634 3.68782015 2.375 7.25 C2.27587347 12.29884441 1.52303816 15.1913101 -2 19 C-5.97988137 22.61807397 -10.1940621 22.43555163 -15.33203125 22.296875 C-18.74335951 21.91728357 -21.17274968 20.93443443 -24 19 C-24.33 18.34 -24.66 17.68 -25 17 C-24.319375 17.33 -23.63875 17.66 -22.9375 18 C-19.47331814 19.17929595 -16.64330889 19.06505909 -13 19 C-11.700625 19.309375 -11.700625 19.309375 -10.375 19.625 C-7.37187899 20.099177 -5.69410116 19.30856342 -3 18 C-3 16.35 -3 14.7 -3 13 C-2.34 12.67 -1.68 12.34 -1 12 C-1.226875 11.401875 -1.45375 10.80375 -1.6875 10.1875 C-1.790625 9.465625 -1.89375 8.74375 -2 8 C-0.5625 6.25 -0.5625 6.25 1 5 C0.34 4.67 -0.32 4.34 -1 4 C-0.67 2.68 -0.34 1.36 0 0 Z " fill="#EC576D" transform="translate(131,105)"/>
<path d="M0 0 C4.29245529 1.53301975 6.01922537 3.9677088 8 8 C8.73922578 13.10805017 9.15762832 17.44443695 6 21.6875 C5.34 22.120625 4.68 22.55375 4 23 C4.020625 21.906875 4.04125 20.81375 4.0625 19.6875 C4.18544452 16.05615809 4.18544452 16.05615809 3 13 C3.33333333 10.66666667 3.66666667 8.33333333 4 6 C3.67 5.01 3.34 4.02 3 3 C2.01 2.67 1.02 2.34 0 2 C0 1.34 0 0.68 0 0 Z " fill="#878BDC" transform="translate(184,314)"/>
<path d="M0 0 C-2.33214148 1.20628008 -4.49642139 2.1654738 -7 3 C-7.33 3.66 -7.66 4.32 -8 5 C-9.155 5.45375 -10.31 5.9075 -11.5 6.375 C-15.10642443 7.57589733 -15.10642443 7.57589733 -15.9375 10.1875 C-15.958125 10.785625 -15.97875 11.38375 -16 12 C-16.99 12 -17.98 12 -19 12 C-17.72173873 7.00316048 -16.04251354 4.23401083 -12 1 C-7.61248469 -0.72366673 -4.54543016 -1.37740308 0 0 Z " fill="#F29C80" transform="translate(317,175)"/>
<path d="M0 0 C0.33 0 0.66 0 1 0 C1 1.98 1 3.96 1 6 C6.94 5.505 6.94 5.505 13 5 C9.03239403 8.96760597 1.34410015 8.09924562 -4.0625 8.25 C-9.38030335 8.22276413 -13.19147712 7.21931825 -18 5 C-18 4.67 -18 4.34 -18 4 C-11.7945858 4.48320848 -6.00054754 5.33318124 0 7 C0 4.69 0 2.38 0 0 Z " fill="#EC6F6A" transform="translate(313,434)"/>
<path d="M0 0 C0.6328125 1.83984375 0.6328125 1.83984375 1 4 C-1.33291501 6.81322104 -3.49436627 8.71778583 -6.6875 10.5 C-9.23016791 11.81084024 -9.23016791 11.81084024 -9.875 14.5625 C-10.24625 15.366875 -10.6175 16.17125 -11 17 C-14.625 18.3125 -14.625 18.3125 -18 19 C-12.44964797 12.21623641 -6.23557973 6.14477032 0 0 Z " fill="#EE855E" transform="translate(54,76)"/>
<path d="M0 0 C0.33 1.32 0.66 2.64 1 4 C13.54 4.33 26.08 4.66 39 5 C39 5.33 39 5.66 39 6 C33.37665694 6.0741916 27.7535992 6.12862179 22.12988281 6.16479492 C20.21707191 6.17987558 18.30429554 6.2003431 16.39160156 6.22631836 C13.6411893 6.26273347 10.89123446 6.27973349 8.140625 6.29296875 C7.28631897 6.30845261 6.43201294 6.32393646 5.55181885 6.33988953 C-0.42152696 6.34158031 -0.42152696 6.34158031 -3.57128906 4.48168945 C-4.04276367 3.99273193 -4.51423828 3.50377441 -5 3 C-3.35 2.01 -1.7 1.02 0 0 Z " fill="#595482" transform="translate(426,82)"/>
<path d="M0 0 C0.33 0 0.66 0 1 0 C1.0749051 3.89506511 0.95785233 7.24474742 0 11 C-0.13929356 12.36676632 -0.24365301 13.7374567 -0.31640625 15.109375 C-0.35830078 15.86347656 -0.40019531 16.61757813 -0.44335938 17.39453125 C-0.50233398 18.56048828 -0.50233398 18.56048828 -0.5625 19.75 C-0.60568359 20.54277344 -0.64886719 21.33554687 -0.69335938 22.15234375 C-0.79902991 24.10137815 -0.89997966 26.05066748 -1 28 C-1.33 28 -1.66 28 -2 28 C-4.19478024 18.26508765 -3.10641565 9.39320922 0 0 Z " fill="#F1A483" transform="translate(271,380)"/>
<path d="M0 0 C0.33 0.99 0.66 1.98 1 3 C-0.3125 5.1875 -0.3125 5.1875 -2 7 C-2.66 7 -3.32 7 -4 7 C-4.28875 7.598125 -4.5775 8.19625 -4.875 8.8125 C-6 11 -6 11 -8 14 C-8.45394552 16.27912938 -8.45394552 16.27912938 -8.625 18.6875 C-8.69976563 19.49574219 -8.77453125 20.30398437 -8.8515625 21.13671875 C-8.90054687 21.75160156 -8.94953125 22.36648437 -9 23 C-9.33 23 -9.66 23 -10 23 C-10.62324455 13.27046005 -10.62324455 13.27046005 -8.375 8.6875 C-5.69049231 5.64976761 -2.93273933 2.79943299 0 0 Z " fill="#EF8D67" transform="translate(35,95)"/>
<path d="M0 0 C0 3.1775688 -0.30845125 4.37572811 -2 7 C-3.91015625 8.1953125 -3.91015625 8.1953125 -6.0625 9.125 C-9.18259157 10.34829428 -9.18259157 10.34829428 -11 13 C-14.52696809 15.44174714 -17.82552867 15.16055659 -22 15 C-20 13 -20 13 -16.4375 11.75 C-9.86804981 9.38835459 -3.9782383 5.81048686 0 0 Z " fill="#F3B8C9" transform="translate(346,426)"/>
<path d="M0 0 C0.66 0.33 1.32 0.66 2 1 C-6.58778626 12.79389313 -6.58778626 12.79389313 -13 16 C-13.66 15.67 -14.32 15.34 -15 15 C-10.05 10.05 -5.1 5.1 0 0 Z " fill="#F18A66" transform="translate(70,60)"/>
<path d="M0 0 C0 8.58 0 17.16 0 26 C-0.33 26 -0.66 26 -1 26 C-1.33 18.08 -1.66 10.16 -2 2 C-3.32 2.99 -4.64 3.98 -6 5 C-5.625 3.0625 -5.625 3.0625 -5 1 C-3 0 -3 0 0 0 Z " fill="#F1865C" transform="translate(65,110)"/>
<path d="M0 0 C0 0.33 0 0.66 0 1 C-0.59167969 1.10957031 -1.18335937 1.21914063 -1.79296875 1.33203125 C-8.60235737 2.69835229 -12.82821609 4.23896508 -17 10 C-17.66 10 -18.32 10 -19 10 C-18.63040494 7.34353548 -18.1988983 6.19357066 -16.25 4.296875 C-10.51116995 0.35142934 -6.94826322 -0.66173935 0 0 Z " fill="#A6C2F1" transform="translate(103,312)"/>
<path d="M0 0 C2 2 2 2 2.23046875 4.53125 C2.20919922 6.00078125 2.20919922 6.00078125 2.1875 7.5 C2.18105469 8.4796875 2.17460937 9.459375 2.16796875 10.46875 C2 13 2 13 1 15 C-0.32 14.67 -1.64 14.34 -3 14 C-2.34 13.34 -1.68 12.68 -1 12 C-1.185625 11.360625 -1.37125 10.72125 -1.5625 10.0625 C-1.706875 9.381875 -1.85125 8.70125 -2 8 C-0.5625 6.25 -0.5625 6.25 1 5 C0.34 4.67 -0.32 4.34 -1 4 C-0.67 2.68 -0.34 1.36 0 0 Z " fill="#F14C66" transform="translate(131,105)"/>
<path d="M0 0 C1.62145758 4.82054955 -0.08571878 8.48362223 -2 13 C-3.6875 15.5625 -3.6875 15.5625 -5 17 C-5.99 16.67 -6.98 16.34 -8 16 C-7.38511719 15.27296875 -7.38511719 15.27296875 -6.7578125 14.53125 C-2.91116613 9.74594829 -1.07957806 6.04563713 0 0 Z " fill="#F4B2C8" transform="translate(355,409)"/>
<path d="M0 0 C1.32 0.66 2.64 1.32 4 2 C0.46163331 4.46862792 -2.83845842 6.76278494 -7 8 C-7.99 7.67 -8.98 7.34 -10 7 C-9.360625 6.896875 -8.72125 6.79375 -8.0625 6.6875 C-7.381875 6.460625 -6.70125 6.23375 -6 6 C-5.67 5.01 -5.34 4.02 -5 3 C-3.67696283 2.6278958 -2.34262065 2.29369827 -1 2 C-0.67 1.34 -0.34 0.68 0 0 Z " fill="#EC5674" transform="translate(336,431)"/>
<path d="M0 0 C-0.598125 0.268125 -1.19625 0.53625 -1.8125 0.8125 C-4.03012126 1.86353037 -4.03012126 1.86353037 -5.4375 3.5625 C-7.49199044 5.45263121 -9.27994277 5.6324247 -12 6 C-10.95902262 3.2556051 -10.02715813 2.0212861 -7.6875 0.1875 C-4.5761278 -1.18729237 -3.19123321 -1.00295901 0 0 Z " fill="#9EBDF0" transform="translate(138,176)"/>
<path d="M0 0 C0.33 1.32 0.66 2.64 1 4 C0.34 4 -0.32 4 -1 4 C-1.226875 4.61875 -1.45375 5.2375 -1.6875 5.875 C-3.37929835 8.61410209 -4.99244161 9.05024472 -8 10 C-6.34908222 5.70761377 -3.26245434 3.1206085 0 0 Z " fill="#EF9069" transform="translate(285,362)"/>
<path d="M0 0 C3.1414436 1.83250877 6.22602027 3.63698023 9 6 C9 6.66 9 7.32 9 8 C9.99 8.33 10.98 8.66 12 9 C12.33 9.99 12.66 10.98 13 12 C11 12 11 12 9.375 10.625 C8 9 8 9 8 7 C6.35 6.67 4.7 6.34 3 6 C3 5.01 3 4.02 3 3 C2.01 3 1.02 3 0 3 C0 2.01 0 1.02 0 0 Z " fill="#EC5770" transform="translate(336,360)"/>
<path d="M0 0 C1.59440475 3.18880951 0.90786761 5.70897992 0 9 C-0.99 9 -1.98 9 -3 9 C-3.33 9.99 -3.66 10.98 -4 12 C-4.50423019 6.70558305 -3.18923033 4.18586481 0 0 Z " fill="#F38860" transform="translate(276,372)"/>
<path d="M0 0 C4.17882671 2.56428003 7.12505529 5.01930733 10 9 C6.89448334 9 5.64738916 8.4606285 3 7 C3 5.68 3 4.36 3 3 C2.01 2.67 1.02 2.34 0 2 C0 1.34 0 0.68 0 0 Z " fill="#EB5F81" transform="translate(108,81)"/>
<path d="M0 0 C0.66 0.99 1.32 1.98 2 3 C-0.64 4.98 -3.28 6.96 -6 9 C-6.33 8.01 -6.66 7.02 -7 6 C-4.69 4.02 -2.38 2.04 0 0 Z " fill="#565082" transform="translate(424,59)"/>
<path d="M0 0 C0.33 0.66 0.66 1.32 1 2 C0.26821134 4.07196631 -0.55899003 6.1108552 -1.4375 8.125 C-1.91058594 9.22070312 -2.38367188 10.31640625 -2.87109375 11.4453125 C-3.24363281 12.28835938 -3.61617188 13.13140625 -4 14 C-4.66 13.01 -5.32 12.02 -6 11 C-5.390625 8.5546875 -5.390625 8.5546875 -4.25 5.875 C-3.88390625 4.98554688 -3.5178125 4.09609375 -3.140625 3.1796875 C-2 1 -2 1 0 0 Z " fill="#D2D0E2" transform="translate(412,427)"/>
<path d="M0 0 C3.21602818 2.36970497 5.64124592 4.17078395 7 8 C7 8.99 7 9.98 7 11 C6.01 11 5.02 11 4 11 C3.896875 10.21625 3.79375 9.4325 3.6875 8.625 C3.22404978 5.66954819 3.22404978 5.66954819 0 4 C0 2.68 0 1.36 0 0 Z " fill="#716D95" transform="translate(468,177)"/>
<path d="M0 0 C0 3 0 3 -1.53125 4.82421875 C-2.1809375 5.43910156 -2.830625 6.05398437 -3.5 6.6875 C-4.1496875 7.31011719 -4.799375 7.93273437 -5.46875 8.57421875 C-5.9740625 9.04472656 -6.479375 9.51523437 -7 10 C-7.66 9.67 -8.32 9.34 -9 9 C-8.06725891 7.87105124 -7.12859878 6.74699124 -6.1875 5.625 C-5.66542969 4.99851562 -5.14335937 4.37203125 -4.60546875 3.7265625 C-3 2 -3 2 0 0 Z " fill="#EBEAF5" transform="translate(273,13)"/>
<path d="M0 0 C2.64 0 5.28 0 8 0 C9.12880057 3.31114834 10.21302675 6.58978257 11 10 C8.96824376 7.96824376 6.93875748 5.93690165 4.9375 3.875 C2.94207047 1.83136814 2.94207047 1.83136814 0 0 Z " fill="#F2B2C4" transform="translate(317,176)"/>
<path d="M0 0 C2.64 0.99 5.28 1.98 8 3 C5.38058783 4.74627478 3.96175123 5.38722388 1 6 C-0.0625 4.125 -0.0625 4.125 -1 2 C-0.67 1.34 -0.34 0.68 0 0 Z " fill="#CECEE3" transform="translate(345,490)"/>
<path d="M0 0 C3.3 0.33 6.6 0.66 10 1 C10 1.66 10 2.32 10 3 C10.66 3.33 11.32 3.66 12 4 C7.6822542 3.49202991 3.96697886 2.80317221 0 1 C0 0.67 0 0.34 0 0 Z " fill="#F29E79" transform="translate(295,438)"/>
<path d="M0 0 C2.5625 1.3125 2.5625 1.3125 5.5625 5.3125 C2.2625 4.3225 -1.0375 3.3325 -4.4375 2.3125 C-4.4375 1.6525 -4.4375 0.9925 -4.4375 0.3125 C-2.4375 -0.6875 -2.4375 -0.6875 0 0 Z " fill="#A2BEF4" transform="translate(106.4375,313.6875)"/>
<path d="M0 0 C0.99 0.66 1.98 1.32 3 2 C0.75 4.0625 0.75 4.0625 -2 6 C-4.3125 5.75 -4.3125 5.75 -6 5 C-4.02 3.35 -2.04 1.7 0 0 Z " fill="#635D90" transform="translate(424,293)"/>
<path d="M0 0 C-3.79692186 2.82561627 -6.18569279 4.56638908 -11 4 C-10.67 3.34 -10.34 2.68 -10 2 C-8.68 2 -7.36 2 -6 2 C-6 1.34 -6 0.68 -6 0 C-3 -1 -3 -1 0 0 Z " fill="#ED566B" transform="translate(90,260)"/>
<path d="M0 0 C0.66 0 1.32 0 2 0 C1.73781251 4.4571874 1.42288711 6.51522698 -1.5625 9.9375 C-2.366875 10.618125 -3.17125 11.29875 -4 12 C-4 10.68 -4 9.36 -4 8 C-3.34 8 -2.68 8 -2 8 C-2 7.01 -2 6.02 -2 5 C-1.34 5 -0.68 5 0 5 C0 3.35 0 1.7 0 0 Z " fill="#EA5871" transform="translate(353,410)"/>
<path d="M0 0 C0.66 0 1.32 0 2 0 C1.67 2.31 1.34 4.62 1 7 C-0.98 5.35 -2.96 3.7 -5 2 C-4.360625 1.855625 -3.72125 1.71125 -3.0625 1.5625 C-1.02454854 1.18992819 -1.02454854 1.18992819 0 0 Z " fill="#96BCF8" transform="translate(109,353)"/>
<path d="M0 0 C0.99 0.33 1.98 0.66 3 1 C3 1.66 3 2.32 3 3 C3.99 3.33 4.98 3.66 6 4 C6.33 4.99 6.66 5.98 7 7 C3.46013806 7 2.50484597 6.41847197 0 4 C0 2.68 0 1.36 0 0 Z " fill="#5B5784" transform="translate(417,137)"/>
<path d="M0 0 C-0.98652984 3.31832766 -1.68731503 4.76548627 -4.5 6.875 C-5.325 7.24625 -6.15 7.6175 -7 8 C-7.66 7.67 -8.32 7.34 -9 7 C-7.88121617 5.82737096 -6.75476949 4.66204862 -5.625 3.5 C-4.68527344 2.52546875 -4.68527344 2.52546875 -3.7265625 1.53125 C-2 0 -2 0 0 0 Z " fill="#8183D9" transform="translate(163,321)"/>
<path d="M0 0 C1.14926266 0.95421808 2.29430541 1.91352045 3.4375 2.875 C4.07558594 3.40867187 4.71367188 3.94234375 5.37109375 4.4921875 C7 6 7 6 8 8 C7.1646875 7.566875 7.1646875 7.566875 6.3125 7.125 C3.91505355 5.9586747 1.48403061 4.9660119 -1 4 C-0.67 2.68 -0.34 1.36 0 0 Z " fill="#98BBEF" transform="translate(114,321)"/>
<path d="M0 0 C3.91402949 1.26941497 5.79072873 2.51167694 8 6 C5.69 5.34 3.38 4.68 1 4 C0.67 2.68 0.34 1.36 0 0 Z " fill="#7D7A9E" transform="translate(465,293)"/>
<path d="M0 0 C4.40114397 0.50298788 6.71195019 2.08772731 10 5 C5.2482602 4.56802365 3.07999946 3.67230705 0 0 Z " fill="#EF8B6B" transform="translate(68,259)"/>
<path d="M0 0 C0.66 0.33 1.32 0.66 2 1 C1.01 2.98 0.02 4.96 -1 7 C-1.99 7 -2.98 7 -4 7 C-2.92598892 4.08482708 -2.22189824 2.22189824 0 0 Z " fill="#6D6A91" transform="translate(420,120)"/>
<path d="M0 0 C0.33 0.99 0.66 1.98 1 3 C-0.4375 5.6875 -0.4375 5.6875 -2 8 C-3.5 6.625 -3.5 6.625 -5 5 C-5 4.34 -5 3.68 -5 3 C-4.01 3 -3.02 3 -2 3 C-1.34 2.01 -0.68 1.02 0 0 Z " fill="#F7895E" transform="translate(31,115)"/>
<path d="M0 0 C-2.71182212 2.60334924 -3.89133813 2.99456691 -7.75 3.1875 C-8.8225 3.125625 -9.895 3.06375 -11 3 C-7.63114177 -0.36885823 -4.54278442 -0.10095076 0 0 Z " fill="#F1C6D6" transform="translate(335,438)"/>
<path d="M0 0 C6.52307692 -0.36923077 6.52307692 -0.36923077 8.9375 1.5 C9.288125 1.995 9.63875 2.49 10 3 C2.25 2.25 2.25 2.25 0 0 Z " fill="#9CB7ED" transform="translate(128,378)"/>
<path d="M0 0 C0.99 0.495 0.99 0.495 2 1 C2.86159454 4.23097953 3.30597523 6.22486274 2.0625 9.375 C1.711875 9.91125 1.36125 10.4475 1 11 C-0.28317892 7.15046324 -0.06643637 4.05261865 0 0 Z " fill="#B5C5F1" transform="translate(83,323)"/>
<path d="M0 0 C0.66 0 1.32 0 2 0 C0.55527654 3.80881639 -1.32603071 5.29742886 -5 7 C-5.99 6.67 -6.98 6.34 -8 6 C-3.25 3 -3.25 3 -1 3 C-0.67 2.01 -0.34 1.02 0 0 Z " fill="#DA586B" transform="translate(129,120)"/>
<path d="M0 0 C0.99 0.33 1.98 0.66 3 1 C3 2.98 3 4.96 3 7 C3.66 7.33 4.32 7.66 5 8 C4.34 8.66 3.68 9.32 3 10 C0 3.375 0 3.375 0 0 Z " fill="#F4A082" transform="translate(270,409)"/>
<path d="M0 0 C2.79872437 2.52788007 4.45773019 4.20411134 5 8 C2 7 2 7 0 4 C0 2.68 0 1.36 0 0 Z " fill="#EB6881" transform="translate(349,372)"/>
<path d="M0 0 C0.99 0.33 1.98 0.66 3 1 C2.43628586 4.26954202 1.50037734 5.82575883 -1 8 C-0.67 5.36 -0.34 2.72 0 0 Z " fill="#9498DF" transform="translate(189,329)"/>
<path d="M0 0 C0.99 0 1.98 0 3 0 C3.66 1.98 4.32 3.96 5 6 C4.01 6 3.02 6 2 6 C1.34 4.02 0.68 2.04 0 0 Z " fill="#F39069" transform="translate(64,252)"/>
<path d="M0 0 C0.99 0.33 1.98 0.66 3 1 C1.68 2.65 0.36 4.3 -1 6 C-1.99 5.67 -2.98 5.34 -4 5 C-2.68 3.35 -1.36 1.7 0 0 Z " fill="#7C76A1" transform="translate(470,198)"/>
<path d="M0 0 C4.875 4.75 4.875 4.75 6 7 C5.01 7.33 4.02 7.66 3 8 C0.37613513 4.93882432 0 4.26826873 0 0 Z " fill="#EC597A" transform="translate(118,90)"/>
<path d="M0 0 C2.38564077 0.57584432 4.66682784 1.22227595 7 2 C7 2.99 7 3.98 7 5 C3.34683329 3.75023244 2.21934164 3.32901247 0 0 Z " fill="#524C7D" transform="translate(419,258)"/>
</svg>
